<?xml version="1.0" encoding="UTF-8"?>
<svg id="Layer_1" xmlns="http://www.w3.org/2000/svg" version="1.1" viewBox="0 0 116 103.31">
  <!-- Generator: Adobe Illustrator 30.1.0, SVG Export Plug-In . SVG Version: 2.1.1 Build 136)  -->
  <defs>
    <style>
      .st0 {
        fill: #fff;
      }
    </style>
  </defs>
  <path class="st0" d="M37.1,0c2.07.42,4.07.99,6.07,1.91,5.48,2.53,10.5,6.6,14.84,10.79,4.38-4.21,9.17-8.13,14.66-10.71,2.05-.96,4.12-1.56,6.25-1.99h4.35c6.07,1.27,8.97,5.79,10.06,11.72,1.14,6.64,0,13.86-1.63,20.44,6.44,1.87,13.19,4.44,18.37,8.69,3.23,2.72,5.36,5.67,5.94,9.79v1.93c-.06.12-.1.36-.13.59-.56,4.21-3.66,7.66-6.94,10.11-5.09,3.72-11.15,6.04-17.23,7.79,1.61,6.52,2.75,13.69,1.65,20.32-.43,2.36-1.12,4.55-2.38,6.57-1.78,2.85-4.6,4.81-7.95,5.24-.24.03-.48.06-.6.13h-2.66c-.12-.07-.37-.09-.61-.12-1.83-.21-3.5-.76-5.22-1.41-6-2.51-11.24-6.77-15.93-11.27-4.53,4.35-9.47,8.38-15.17,10.95-1.94.82-3.87,1.49-5.97,1.73-.24.03-.49.06-.61.12h-2.66c-.12-.06-.36-.09-.6-.12-3.35-.43-6.17-2.39-7.95-5.24-1.25-1.99-1.93-4.14-2.36-6.47-1.13-6.67.01-13.87,1.63-20.43-6.17-1.78-12.39-4.16-17.51-8-3.17-2.44-6.13-5.8-6.67-9.9-.03-.23-.07-.48-.13-.6v-1.93c.29-1.78.74-3.41,1.69-4.95,1.12-1.92,2.6-3.47,4.31-4.89,5.2-4.22,11.89-6.77,18.31-8.63-1.63-6.59-2.77-13.8-1.63-20.45,1.09-5.92,3.98-10.44,10.06-11.71h4.35ZM44.68,28.51c3.07-4.36,6.27-8.34,9.8-12.19-2.57-2.5-5.22-4.77-8.15-6.8-2.05-1.4-4.1-2.59-6.4-3.51-3.78-1.49-8.37-1.98-10.71,2.06-3.44,5.91-1.64,16.47-.02,22.86,5.17-1.19,10.26-1.9,15.47-2.43ZM86.8,30.92c1.43-5.77,2.45-11.94,1.66-17.75-.28-1.77-.73-3.41-1.58-4.94-2.32-4.19-6.93-3.73-10.81-2.22-5.44,2.21-10.32,6.23-14.55,10.31,3.6,3.89,6.81,7.97,9.84,12.21,5.27.49,10.31,1.24,15.44,2.4ZM64.72,28.03c-2.19-2.93-4.33-5.46-6.71-8.09-2.37,2.57-4.58,5.22-6.75,8.12,4.66-.2,8.97-.16,13.46-.02ZM68.55,69.89c4-5.92,7.49-11.94,10.55-18.29-3.09-6.38-6.59-12.45-10.55-18.27-7.08-.48-14.12-.51-21.11.02-3.97,5.88-7.46,11.9-10.53,18.26,3.09,6.37,6.6,12.45,10.56,18.28,7.05.52,14.05.51,21.08,0ZM34.23,45.69c2.06-4.01,4.31-7.83,6.73-11.69-3.56.45-6.97,1.01-10.38,1.8,1.1,3.45,2.28,6.64,3.65,9.89ZM85.42,35.78c-3.47-.78-6.85-1.34-10.39-1.79,2.43,3.86,4.67,7.69,6.74,11.7,1.36-3.26,2.55-6.45,3.65-9.91ZM9.26,58.58c2.04,1.64,4.16,2.86,6.48,3.97,3.22,1.53,6.51,2.68,9.93,3.66,1.57-5.05,3.47-9.84,5.65-14.61-2.19-4.78-4.08-9.57-5.65-14.59-3.47.98-6.78,2.15-10.02,3.69-2.26,1.09-4.34,2.29-6.29,3.84-3.2,2.58-5.81,6.29-3.38,10.37.85,1.42,1.94,2.56,3.27,3.67ZM110.08,48.45c-.83-1.47-1.96-2.65-3.26-3.74-1.98-1.61-4.1-2.85-6.41-3.97-3.24-1.54-6.54-2.72-10.09-3.72-1.56,4.97-3.45,9.79-5.66,14.59,2.19,4.78,4.08,9.56,5.65,14.61,3.44-.98,6.77-2.14,10-3.69,4.85-2.28,13.39-7.65,9.76-14.08ZM40.95,69.21c-2.47-3.97-4.66-7.67-6.72-11.7-1.34,3.21-2.57,6.47-3.66,9.93,3.5.75,6.91,1.38,10.38,1.77ZM85.42,67.45c-1.05-3.38-2.28-6.64-3.65-9.94-2.05,4.02-4.32,7.84-6.72,11.72,3.6-.44,6.91-1.02,10.38-1.78ZM40.06,97.16c2.34-.96,4.37-2.16,6.41-3.57,2.85-1.99,5.43-4.21,8-6.69-3.53-3.85-6.77-7.9-9.81-12.19-5.24-.5-10.36-1.25-15.48-2.41-.87,3.45-1.5,6.83-1.8,10.34-.21,2.73-.22,5.34.25,8.02.33,1.72.82,3.32,1.75,4.76,2.47,3.82,6.88,3.23,10.66,1.74ZM86.64,95.34c.94-1.49,1.42-3.13,1.74-4.89.44-2.65.42-5.23.21-7.93-.31-3.47-.93-6.81-1.79-10.22-5.12,1.16-10.24,1.92-15.47,2.41-3.03,4.27-6.24,8.31-9.81,12.18,2.53,2.46,5.14,4.7,8,6.7,4.39,3.07,13.24,7.88,17.12,1.75ZM64.71,75.18c-4.7.17-8.99.16-13.44,0,2.17,2.86,4.35,5.48,6.73,8.1,2.38-2.64,4.61-5.27,6.71-8.1Z"/>
  <circle class="st0" cx="58" cy="51.61" r="10.34"/>
</svg>