<?xml version="1.0" encoding="UTF-8"?>
<svg id="Layer_1" xmlns="http://www.w3.org/2000/svg" version="1.1" viewBox="0 0 145.79 110.42">
  <!-- Generator: Adobe Illustrator 30.1.0, SVG Export Plug-In . SVG Version: 2.1.1 Build 136)  -->
  <defs>
    <style>
      .st0 {
        fill: #e52421;
      }
    </style>
  </defs>
  <path class="st0" d="M46.55,29.54c-11.7,7.54-14.7,24.05-9.71,36.12-.4-11.19,3.99-24.16,16.6-24.69,11.52,1.09,15.9,12.77,15.88,23,4.62-9.8,1.96-26.25-6.48-32.42-3.77-2.76-8.48-3.81-13.11-3.89l-14.59-.25c-7.01-.12-13.28-2.09-18.83-6.45C9.26,15.42,3.84,8.19,0,0c13.79,4.36,24.75,8.32,38.72,7.23,17.41-.72,33.7,7.47,38.95,24.96,4.61,15.36,2.42,36.1-10.2,47.18-9.41,8.26-22.61,8.21-31.69-.38-12.93-12.24-13.84-34.85-3.63-49.67l14.41.23ZM42.38,73.67c1.82,3.03,6.24,4.34,9.49,4.52,4.09.22,9.39-1.51,11.73-5.21,4.34-6.83,3.51-16.12-.62-22.65-2.8-4.44-7.72-6.74-12.53-5.2l.73,9.41-6.48-5.79c-5.49,7.25-7.04,17.04-2.32,24.92Z"/>
  <path class="st0" d="M116.67,29.74c2.99-.1,5.84-.26,8.86-1.05,9.65,12.31,8.85,33.5-3.03,44.28-5.21,4.73-12.36,6.65-18.86,4.38,0-8.98-11.25-19.83-17.88-25.13-.45-10.18,1.49-26,9.03-33.56,6.4-6.42,15.11-8.59,23.96-8.54,12.35.08,15.49-1.42,27.04-6.15-3.21,11.89-12.68,22.32-25.07,23.55-6.24.62-14.07-2.59-19.9,3.88-2.97,3.3-5.24,7.4-5.43,12.03,3.25-4.06,6.98-6.84,11.95-6.77,4.52.07,8.39,2.62,10.99,6.2,3.5,4.66,4.16,10.07,4.24,16.08,3.53-9.02,2.28-21.91-5.89-29.21ZM101.33,65.94c4.94,4.95,13.56,4.16,16.97-2.1,2.33-4.27,1.47-10.17.09-14.58-.76-2.43-2.14-4.12-3.73-5.84-3.08-3.32-8.13-4.33-11.75-1.69.35,3.14.7,5.6.73,8.79l-5.39-5c-1.31,2.29-3.17,4.85-3.03,7.43.26,4.99,2.51,9.38,6.11,12.98Z"/>
  <path class="st0" d="M89.3,110.42c-5.32-6.99-10.59-13.66-15.17-21.03l-5.04-8.1c8.34-7.39,12.1-17.24,13.59-28.26,5.96,4.16,10.82,9.23,14.93,14.92,2.56,3.39,3.73,7.03,3.72,11.38-.69,11.23-4.55,21.89-12.04,31.08Z"/>
</svg>