<?xml version="1.0" encoding="UTF-8"?>
<svg id="Layer_1" xmlns="http://www.w3.org/2000/svg" version="1.1" viewBox="0 0 243.45 81.97">
  <!-- Generator: Adobe Illustrator 30.1.0, SVG Export Plug-In . SVG Version: 2.1.1 Build 136)  -->
  <defs>
    <style>
      .st0 {
        fill: #fff;
      }
    </style>
  </defs>
  <polygon class="st0" points="0 72.22 0 34.49 6.7 34.44 6.73 43.06 13.56 43.07 13.55 49.8 6.72 49.81 6.71 72.14 0 72.22"/>
  <path class="st0" d="M218.09,0c1.82.39,3.45,1.02,4.88,2.24l-6.33,6.37,1.15,1.07,6.33-6.34c2.44,2.99,2.91,6.87,1.28,10.24-1.51,3.12-4.63,5.34-8.33,5.38-5.19.05-9.34-3.85-9.69-8.9s3.31-9.2,8.26-10.06h2.43Z"/>
  <path class="st0" d="M243.45,24.95v.91h-8.9s-.02,1.47-.02,1.47h8.92v1.07c-1.21,4.43-4.93,7.82-9.74,7.67s-8.52-3.77-9.05-8.26,2.22-8.93,6.74-10.18c5.61-1.56,10.7,1.9,12.05,7.32Z"/>
  <path class="st0" d="M56.69,70.74l-.03,11.21-6.76.02.08-24.52c.03-8.02,6.87-13.64,14.5-13.96,9.16-.38,16.18,6.89,15.4,16.05-.68,7.97-7.62,14-15.78,13.38-2.58-.2-4.82-.68-7.4-2.18ZM73.44,58.05c0-4.65-3.77-8.42-8.42-8.42s-8.42,3.77-8.42,8.42,3.77,8.42,8.42,8.42,8.42-3.77,8.42-8.42Z"/>
  <path class="st0" d="M161.85,66.84c2.68-.93,4.58-2.73,5.23-5.47l6.6-1.81c-.68,7.41-6.49,12.89-13.61,13.38s-13.75-4.28-15.41-11.49c-1.21-5.26.44-10.68,4.31-14.29s9.53-5.01,14.69-3.22,9.04,6.63,9.94,12.35l-21.71,6.24c1.64,3.94,5.95,5.7,9.98,4.31ZM150.64,57.51l15.2-4.35c-1.78-3.54-5.73-4.98-9.39-3.9s-6.26,4.27-5.8,8.25Z"/>
  <path class="st0" d="M118.76,61.41l6.61-1.84c-.93,8.39-7.57,14-16.03,13.32-5.61-.45-10.38-4.17-12.35-9.42-1.72-4.58-1.3-9.41,1.45-13.66,4.79-7.38,15.38-9,21.95-2.83,2.65,2.49,4.38,5.7,4.83,9.33l-21.63,6.21c1.64,3.97,5.94,5.65,9.91,4.35,2.59-.84,4.62-2.58,5.27-5.47ZM102.39,57.5l15.14-4.34c-1.88-3.69-6.02-5.08-9.84-3.76-3.43,1.19-5.88,4.42-5.3,8.09Z"/>
  <polygon class="st0" points="202.22 72.32 194.08 72.4 187.81 62.81 181.42 72.39 173.36 72.35 183.69 57.66 174.35 44.45 182.32 44.43 187.8 53.03 193.18 44.43 201.15 44.44 191.8 57.66 202.22 72.32"/>
  <polygon class="st0" points="143.25 49.77 136.27 49.82 136.27 72.1 129.65 72.12 129.65 34.46 136.25 34.44 136.29 43.05 143.24 43.06 143.25 49.77"/>
  <path class="st0" d="M217.74,44.11c-.45-.14-1.04-.15-1.46-.04l-.06,8.9c-5.45-.56-9.09-5.35-8.55-10.38.56-5.28,5.22-9.08,10.55-8.42,3.46.43,6.32,2.69,7.57,5.63,1.46,3.44.76,7.15-1.59,9.91-1.62,1.91-3.74,3.12-6.43,3.24l-.03-8.84Z"/>
  <rect class="st0" x="84.53" y="34.48" width="6.61" height="37.62"/>
  <path class="st0" d="M22,57.1l-.26,14.96h-6.67s.03-14.63.03-14.63c.02-8.75,8.07-15.26,16.72-14.14v6.39c-4.73-.84-9.73,2.38-9.82,7.41Z"/>
  <rect class="st0" x="37.06" y="44.13" width="6.76" height="27.92"/>
  <circle class="st0" cx="40.32" cy="36.43" r="3.71"/>
</svg>