<?xml version="1.0" encoding="UTF-8"?>
<svg id="Layer_1" xmlns="http://www.w3.org/2000/svg" version="1.1" viewBox="0 0 151.09 39.43">
  <!-- Generator: Adobe Illustrator 30.1.0, SVG Export Plug-In . SVG Version: 2.1.1 Build 136)  -->
  <defs>
    <style>
      .st0 {
        fill: #fff;
      }
    </style>
  </defs>
  <path class="st0" d="M0,5.59v-1.01C.21,3.04,1.95.15,4.26.16l13.37.08c2.93.02,5.39,2.39,5.41,5.36l.09,17.31,9.39-18.29C34.19,1.36,37.45-.16,40.93.18c3.02.3,5.29,2.56,5.29,5.78v17.05s9.92-18.63,9.92-18.63c2.91-5.48,10.23-4.91,13.01-2.68,1.74,1.4,1.97,4.12.75,6.18l-15.49,26.09c-2.47,4.16-6.89,5.9-11.45,5.18-4.04-.64-7.07-3.77-7.1-8.01l-.07-10.06-6.91,12.63c-2.41,4.41-7.25,6.32-12.08,5.33-3.81-.77-6.74-3.9-6.75-7.95l-.08-20.59c-2.03-.04-3.97-.03-5.81-.2-2.75-.25-3.81-2.4-4.17-4.72Z"/>
  <path class="st0" d="M108.99,19.72c0,10.89-8.83,19.72-19.72,19.72s-19.72-8.83-19.72-19.72S78.38,0,89.27,0s19.72,8.83,19.72,19.72ZM96.7,19.72c0-4.08-3.31-7.39-7.39-7.39s-7.39,3.31-7.39,7.39,3.31,7.39,7.39,7.39,7.39-3.31,7.39-7.39Z"/>
  <path class="st0" d="M151.09,19.72c0,10.88-8.82,19.7-19.7,19.7s-19.7-8.82-19.7-19.7S120.5.02,131.39.02s19.7,8.82,19.7,19.7ZM138.79,19.72c0-4.08-3.31-7.39-7.39-7.39s-7.39,3.31-7.39,7.39,3.31,7.39,7.39,7.39,7.39-3.31,7.39-7.39Z"/>
</svg>