<?xml version="1.0" encoding="UTF-8"?>
<svg id="Layer_1" xmlns="http://www.w3.org/2000/svg" version="1.1" viewBox="0 0 103.31 103.31">
  <!-- Generator: Adobe Illustrator 30.1.0, SVG Export Plug-In . SVG Version: 2.1.1 Build 136)  -->
  <defs>
    <style>
      .st0 {
        fill: #fff;
      }
    </style>
  </defs>
  <path class="st0" d="M53.72,0c.66.63,2.02.24,3.28.36,24.16,2.36,43.58,21.78,45.95,45.94.12,1.26-.28,2.62.36,3.28v4.13c-.64.66-.24,2.02-.36,3.28-2.36,24.16-21.78,43.58-45.95,45.94-1.26.12-2.62-.27-3.28.36h-4.13c-.66-.64-2.02-.24-3.28-.36C22.14,100.58,2.73,81.17.36,57c-.12-1.26.27-2.62-.36-3.28v-4.13c.5-1.17.26-2.35.41-3.73C2.97,22.03,22.03,2.98,45.85.4c1.45-.16,2.78.22,3.74-.4h4.13ZM100.96,51.66c0-27.23-22.07-49.31-49.31-49.31S2.35,24.43,2.35,51.66s22.07,49.31,49.31,49.31,49.31-22.07,49.31-49.31Z"/>
  <path class="st0" d="M39.71,26.82c-1.36-.11-2.38.5-2.54,1.44-.19,1.13.64,2.19,1.81,2.29l4.42.37,6.93,18.83-9.69,29.01L24.62,31.12l4.79-.64c.89-.12,1.85-.95,1.87-1.77.02-.87-.91-1.97-1.83-1.91-4.98.31-9.44.63-14.63.35C29.73,4.73,60.75.65,81.02,18.51c-2.37.79-4.66,1.66-5.82,3.32-7.15,10.33,10.68,16.42,5.4,33.85l-6.85,22.58-15.86-47.15,4.99-.66c.73-.1,1.66-1.14,1.66-1.77,0-.97-.99-1.98-2.06-1.89-7.67.63-14.85.69-22.77.03Z"/>
  <path class="st0" d="M66.25,93.39c-8.43,3.17-17.89,3.39-27.07.79l13.26-38.19,13.81,37.4Z"/>
  <path class="st0" d="M32.04,91.15C10.86,81.22,1.5,55.38,11.19,33.72l20.86,57.42Z"/>
  <path class="st0" d="M74.18,89.68l14.28-41.47c1.89-5.5,2.51-10.59,2.55-16.79,10.6,20.43,3.77,46.19-16.83,58.26Z"/>
</svg>