<?xml version="1.0" encoding="UTF-8"?>
<svg id="Layer_1" data-name="Layer 1" xmlns="http://www.w3.org/2000/svg" viewBox="0 0 292.53 95.5">
  <defs>
    <style>
      .cls-1 {
        fill: #c54949;
      }
    </style>
  </defs>
  <path class="cls-1" d="M292.52,95.5l-55.83-16.53V16.55S292.53,0,292.53,0l-.02,95.5ZM288.36,74.13c-5.31-10-11.23-18.72-17.76-27.68l16.71-25.2-10.97-.03-11.55,18.06-11.78-18.15-11.34.15,16.91,25.25-11.3,16.72c-2.4,3.55-4.22,6.98-6.35,10.93h10.83c3.9-7.17,7.93-13.65,12.66-20.36,4.87,6.59,8.97,13.23,12.73,20.44l11.21-.13Z"/>
  <path d="M40.23,57.65c.1,4.12-.74,7.93-3.39,10.87-5.78,6.4-16.59,6.43-24.64,6.28-4.12-.08-8.01-.34-12.19-1.32V21.99c9.33-1.61,23.52-2.54,31.64,2.04,3.8,2.2,5.84,5.92,6.02,10.27.21,4.9-2.03,9.01-6.75,11.49,5.66,1.87,9.17,5.92,9.32,11.86ZM28.05,36.18c.85-8.88-12.85-7.78-18.53-7.3v13.93s8.2-.06,8.2-.06c4.68-.04,9.82-1.22,10.33-6.56ZM28.77,63.23c2.13-3,2.07-6.7.15-9.68-4.24-4.23-13.4-2.99-19.41-3.18v16.2c5.97.26,14.85,1.22,19.26-3.34Z"/>
  <path d="M189.7,74.25l-8.13.05c-6.65-10.84-13.47-21.23-21.05-31.39-1.73-2.31-3.31-4.3-5.25-6.4l-.03,37.68h-9.48s0-52.93,0-52.93l7.88-.1c9.72,10.84,18.51,23.07,26.5,35.22l.03-35.2h9.54s0,53.06,0,53.06Z"/>
  <path d="M76.54,74.24c-3.95-7.08-8.14-13.62-13.05-20.06l-8.02.08-.06,20.04-9.6-.08V21.92c9.27-1.5,21.17-2.24,29.42,1.38,4.9,2.21,8.1,6.39,8.68,11.76.91,8.43-2.34,14.25-10.42,17.29,5.41,6.96,10.02,14.02,13.83,21.94l-10.77-.05ZM73.89,38c.38-3.92-2.02-7.12-5.84-8.14-4.05-1.08-8.2-.95-12.6-.59v17.13c6.75-.01,18.53,1.08,18.43-8.4Z"/>
  <polygon points="226.64 50.54 204.88 50.54 204.84 66.05 231.1 66.08 231.1 74.23 195.21 74.22 195.21 21.18 229.28 21.2 229.26 29.47 204.89 29.42 204.85 42.49 226.61 42.51 226.64 50.54"/>
  <path d="M140.15,21.26l-9.15,16.51-9.59,15.66-.03,20.8-9.62-.02-.03-20.68c-6.8-10.53-12.83-20.9-18.83-32.26l11.28-.05c3.7,8.23,7.88,15.54,12.61,23.38l7.43-12.83c2.01-3.48,3.52-6.86,5.27-10.57l10.66.06Z"/>
</svg>